<?xml version="1.0" encoding="UTF-8" standalone="no"?>
<!-- Created with Inkscape (http://www.inkscape.org/) -->

<svg
   width="52.17382mm"
   height="46.255619mm"
   viewBox="0 0 52.17382 46.255619"
   version="1.1"
   id="svg1"
   xml:space="preserve"
   inkscape:export-filename="HW.svg"
   inkscape:export-xdpi="96"
   inkscape:export-ydpi="96"
   xmlns:inkscape="http://www.inkscape.org/namespaces/inkscape"
   xmlns:sodipodi="http://sodipodi.sourceforge.net/DTD/sodipodi-0.dtd"
   xmlns="http://www.w3.org/2000/svg"
   xmlns:svg="http://www.w3.org/2000/svg"><sodipodi:namedview
     id="namedview1"
     pagecolor="#ffffff"
     bordercolor="#000000"
     borderopacity="0.25"
     inkscape:showpageshadow="2"
     inkscape:pageopacity="0.0"
     inkscape:pagecheckerboard="0"
     inkscape:deskcolor="#d1d1d1"
     inkscape:document-units="mm"><inkscape:page
       x="0"
       y="0"
       width="52.173817"
       height="46.255619"
       id="page2"
       margin="0"
       bleed="0" /></sodipodi:namedview><defs
     id="defs1" /><g
     inkscape:label="Layer 1"
     inkscape:groupmode="layer"
     id="layer1"
     transform="translate(36.841384,-299.49117)"><path
       style="fill:#000000"
       d="m -16.905748,344.75424 c -2.433582,-1.29774 -3.332047,-2.63709 -3.332047,-4.96711 0,-0.89099 0.182162,-2.23338 0.404805,-2.9831 0.368411,-1.24057 0.365338,-1.48379 -0.03418,-2.70523 -0.341617,-1.04443 -0.409252,-1.97043 -0.304945,-4.175 0.112516,-2.37806 0.04734,-3.10136 -0.405973,-4.50497 -0.469408,-1.45346 -0.502261,-1.87505 -0.251285,-3.2246 0.246817,-1.32719 0.219128,-1.73735 -0.190769,-2.82584 -0.740054,-1.96525 -0.880258,-3.36049 -0.540249,-5.37628 0.32125,-1.90459 0.490508,-2.13708 1.058009,-1.45329 0.46566,0.56109 0.859821,0.4927 0.666728,-0.11569 -0.511185,-1.6106 0.235157,-7.16035 0.962938,-7.16035 0.115561,0 0.686828,0.60309 1.269481,1.3402 0.997101,1.26143 1.863352,3.38976 1.863352,4.57816 0,0.48142 0.0728,0.4609 0.784755,-0.2212 l 0.784755,-0.75184 0.316506,0.76848 c 0.174079,0.42267 0.369854,2.04732 0.435057,3.61034 0.0652,1.56302 0.218463,2.7801 0.340579,2.70463 0.380451,-0.23514 0.64564,1.7392 0.64564,4.8068 v 2.94494 l 0.612537,-0.23296 c 1.015882,-0.38637 1.074177,-0.28869 0.689931,1.1561 -0.203186,0.76398 -0.437955,2.34156 -0.52171,3.50572 -0.08376,1.16417 -0.220248,2.41433 -0.303318,2.77813 -0.129892,0.56885 -0.200952,0.47625 -0.507572,-0.66146 -0.196095,-0.7276 -0.358832,-2.02598 -0.361639,-2.88528 -0.0048,-1.47131 -0.03209,-1.5379 -0.468125,-1.14269 -0.254661,0.23082 -0.862368,1.07918 -1.35046,1.88525 l -0.887439,1.46558 0.424419,1.2456 c 0.23343,0.68508 0.424418,1.66095 0.424418,2.1686 v 0.92301 l 0.992187,-0.99547 c 0.545703,-0.54751 1.317245,-1.1645 1.714538,-1.37109 0.705478,-0.36685 0.731742,-0.35314 1.124479,0.58681 0.221171,0.52934 0.402129,1.06695 0.402129,1.1947 0,0.3729 0.310649,0.26901 0.6900211,-0.23075 0.195394,-0.2574 0.35522,-1.1424 0.359898,-1.99287 0.0096,-1.7544 0.403372,-2.85477 1.477153,-4.12832 0.696789,-0.82642 0.75711,-1.0719 0.780187,-3.175 0.01973,-1.79795 0.14735,-2.51312 0.604292,-3.38632 0.620693,-1.18614 1.565399,-2.01596 1.993702,-1.75125 0.16541,0.10223 0.200216,-0.15035 0.09394,-0.68171 -0.250469,-1.25235 0.277253,-3.2711 1.118517,-4.2788 l 0.741116,-0.88774 0.740257,1.1186 c 0.458924,0.69349 0.786654,1.60146 0.86233803,2.38912 l 0.12208,1.27051 1.170953,-0.38549 c 0.644024,-0.21202 1.25593797,-0.30021 1.35980997,-0.19597 0.103871,0.10424 0.188857,1.16157 0.188857,2.34962 0,1.91971 -0.09168,2.32723 -0.823817,3.66183 l -0.82381597,1.50172 0.661594,0.16605 c 0.64106197,0.1609 0.65635997,0.21693 0.49293597,1.80557 -0.09581,0.93136 -0.45184197,2.18817 -0.82428397,2.90975 -0.598925,1.16039 -0.630529,1.38726 -0.36543,2.62338 0.85217497,3.97355 -1.50182203,8.84359 -4.76492703,9.85786 -0.494273,0.15364 -0.396851,-0.013 0.460458,-0.78751 1.659293,-1.49907 2.742563,-3.93417 2.891027,-6.49879 0.06685,-1.15475 0.0408,-2.09955 -0.05788,-2.09955 -0.543437,0 -1.784452,0.92378 -3.11452,2.31838 l -1.506164,1.57924 0.401145,1.29233 c 0.558173,1.79822 0.312989,4.02098 -0.594863,5.39284 -0.385402,0.58238 -0.738365,1.05888 -0.784363,1.05888 -0.046,0 0.102673,-0.44589 0.330378,-0.99087 0.581719,-1.39225 0.365582,-4.31955 -0.434165,-5.88018 -0.741784,-1.44753 -1.615565,-2.65395 -1.922187,-2.65395 -0.483618,0 -1.03325,2.00926 -1.0792651,3.94542 -0.04236,1.78225 0.04921,2.2205 0.7666831,3.66948 0.448132,0.90503 0.780372,1.64551 0.738312,1.64551 -0.207737,0 -1.5046541,-1.54802 -1.8628381,-2.22351 l -0.407398,-0.7683 -0.732859,1.16518 c -0.403072,0.64084 -1.023957,1.43369 -1.379744,1.76187 l -0.646886,0.59669 -0.03813,-1.67898 c -0.04315,-1.90008 -0.31599,-2.78277 -1.303984,-4.21866 -0.598834,-0.87031 -2.914133,-2.83637 -3.340205,-2.83637 -0.283345,0 -0.70164,1.98329 -0.703117,3.33374 -0.0012,1.08144 0.156456,1.56738 0.793934,2.4474 0.437475,0.60391 0.88396,1.10298 0.992188,1.10904 0.108227,0.006 0.663099,0.42278 1.233047,0.92604 0.569948,0.50327 0.986667,0.91158 0.926042,0.90736 -0.06063,-0.004 -0.932526,-0.44617 -1.937556,-0.98212 z m 4.60373,-1.65604 c 0.994589,-2.35745 1.060596,-8.3342 0.09559,-8.65587 -0.340999,-0.11366 -2.394393,1.89928 -2.600781,2.54955 -0.08829,0.27817 0.225558,1.09124 0.770616,1.9964 1.058699,1.75814 1.38681,3.39102 0.993082,4.94218 -0.349573,1.37722 -0.04775,1.03844 0.741488,-0.83226 z m -2.648371,-7.27605 c 0.0056,-1.15475 -1.374012,-3.88588 -2.676927,-5.29937 -1.053029,-1.1424 -1.142127,-1.18687 -1.334737,-0.6662 -0.113512,0.30685 -0.284624,1.49605 -0.380247,2.64266 l -0.173861,2.08474 1.028245,0.53093 c 0.565536,0.292 1.503268,0.88863 2.08385,1.32584 1.157719,0.87181 1.447058,0.74869 1.453677,-0.6186 z m 9.9298113,-1.24702 c 0.291491,-1.66656 -1.079438,-5.23527 -2.011143,-5.23527 -0.381141,0 -1.262551,1.56805 -1.70174,3.02743 l -0.393521,1.30763 1.081801,1.0711 c 0.594991,0.5891 1.276438,1.40058 1.514327,1.8033 l 0.432526,0.7322 0.452958,-0.86197 c 0.249126,-0.47409 0.530283,-1.30408 0.624792,-1.84442 z m 4.59529103,-3.86615 c 0.412771,-1.65152 0.577794,-3.2212 0.338649,-3.2212 -0.357488,0 -2.20642703,1.43001 -3.12190503,2.41455 -0.775537,0.83404 -0.821331,0.99151 -0.696435,2.39486 l 0.133686,1.50212 1.551505,-1.05904 c 1.23180603,-0.84083 1.60157503,-1.25939 1.79450003,-2.03129 z M -16.015294,328.87915 c -0.733199,-2.29314 -3.187633,-6.2186 -3.618708,-5.78752 -0.08955,0.0895 -0.162821,0.87029 -0.162821,1.73499 v 1.57217 l 1.962327,1.93355 c 1.079279,1.06346 2.001668,1.84531 2.049752,1.73743 0.04808,-0.10787 -0.05566,-0.64365 -0.23055,-1.19062 z m 12.2661013,0.12163 c 0.620399,-1.05863 0.649228,-1.26352 0.440132,-3.12803 -0.240786,-2.14709 -0.92959,-3.94122 -1.513114,-3.94122 -0.435208,0 -1.022577,1.33935 -1.582609,3.60876 l -0.413473,1.67551 1.095439,1.18841 c 0.602492,0.65363 1.095439,1.31014 1.095439,1.45891 0,0.48784 0.204758,0.28678 0.878186,-0.86234 z m -9.9374683,-2.89117 0.670744,-0.71671 -0.332959,-2.45829 c -0.183127,-1.35206 -0.388944,-2.55182 -0.457371,-2.66614 -0.162219,-0.27101 -1.572607,1.50428 -2.257409,2.84145 -0.509239,0.99436 -0.51477,1.10559 -0.111834,2.24896 0.233145,0.66157 0.504126,1.72665 0.60218,2.36684 l 0.17828,1.16398 0.518812,-1.03169 c 0.285347,-0.56743 0.820647,-1.35421 1.189557,-1.7484 z m 13.65907633,-1.62654 c 0.213203,-0.7485 0.469812,-2.04552 0.570243,-2.88227 0.16628,-1.38536 0.137375,-1.52135 -0.323354,-1.52135 -0.278276,0 -0.975604,0.48096 -1.54961803,1.0688 l -1.043661,1.06881 -0.0022,2.46305 -0.0022,2.46304 0.981596,-0.64958 c 0.76899503,-0.5089 1.06555603,-0.94435 1.36923903,-2.0105 z m -17.15656633,-5.0627 c -0.783275,-1.84297 -2.450911,-4.39318 -2.987498,-4.56858 -0.249876,-0.0817 -0.330729,0.54462 -0.330729,2.5619 v 2.67 l 1.785937,1.78382 1.785938,1.78381 0.236347,-1.26096 c 0.20584,-1.0982 0.142591,-1.48157 -0.489995,-2.96999 z m 15.0476943,1.28721 c 0.825398,-1.4768 0.822344,-1.39809 0.112822,-2.90753 -0.565162,-1.20233 -0.574915,-1.20865 -0.914111,-0.59243 -0.188569,0.34258 -0.483168,1.23426 -0.654664,1.98151 -0.278046,1.21153 -0.257849,1.43267 0.186506,2.04221 0.274075,0.37596 0.517904,0.6873 0.541842,0.69188 0.02394,0.005 0.351361,-0.54247 0.727605,-1.21564 z m -12.4471003,-1.8837 0.759447,-0.8712 -0.462404,-2.38064 c -0.542921,-2.79518 -0.778062,-2.79637 -1.84305,-0.009 -0.65443,1.71263 -0.670346,1.87585 -0.348402,3.573 0.325896,1.71796 0.350905,1.75767 0.736159,1.16887 0.219342,-0.33522 0.740555,-1.00154 1.15825,-1.4807 z m -1.947913,-5.64083 c 0.322898,-1.12717 0.301051,-1.30389 -0.3271,-2.64583 -0.763113,-1.63026 -1.41362,-2.56574 -1.632169,-2.34719 -0.08156,0.0816 -0.290548,1.2746 -0.464417,2.6512 l -0.316123,2.50291 0.97195,1.41297 c 0.534573,0.77713 0.987859,1.54843 1.007303,1.71401 0.01944,0.16557 0.12067,-0.23475 0.224949,-0.88959 0.104278,-0.65484 0.345301,-1.73416 0.535607,-2.39848 z m -15.787276,26.93854 c -4.235037,-6.00098 -5.565699,-13.51454 -3.695648,-20.86739 2.798555,-11.00364 12.202367,-18.83944 23.646144,-19.70333 4.2408583,-0.32014 9.3124113,0.66467 13.06433333,2.53687 5.90436097,2.94627 10.17467967,7.39883 12.68770167,13.22917 1.68365,3.90615 1.96555,5.39948 1.947902,10.31875 -0.0143,3.98676 -0.07892,4.57215 -0.744535,6.74542 -0.830464,2.71149 -2.456867,6.29924 -3.299043,7.27749 -0.517414,0.60102 -0.510493,0.55267 0.07574,-0.52916 0.354856,-0.65485 1.003378,-2.164 1.44116,-3.35367 5.800527,-15.76291 -4.4281727,-32.45614 -20.9958167,-34.26516 -4.9987003,-0.5458 -10.8191883,0.7301 -15.2413463,3.34103 -12.331164,7.28059 -16.122577,23.74036 -8.246126,35.79915 0.687859,1.05311 0.180134,0.63362 -0.64047,-0.52917 z"
       id="path2"
       sodipodi:nodetypes="ssssssssssssssscsssscsssssssscsscssssscsssssscsscsssscssssssssscsssssssssscsscssssscscssssssssssssscsssssscsscsssssscssssscssssssscsssscssssscsscssscccsccssscccssssssscsccscssccsssscsssssssssssssssssss" /></g></svg>
